<mxfile host="app.diagrams.net" modified="2022-09-17T13:26:40.686Z" agent="5.0 (Macintosh)" etag="UQQ9up9UDJXpwKDG2g2K" version="20.3.0" type="github">
  <diagram id="pcyGeBuE8nyzWbv3072U" name="Page-1">
    <mxGraphModel dx="946" dy="526" grid="1" gridSize="10" guides="1" tooltips="1" connect="1" arrows="1" fold="1" page="1" pageScale="1" pageWidth="850" pageHeight="1100" math="0" shadow="0">
      <root>
        <mxCell id="0" />
        <mxCell id="1" parent="0" />
        <mxCell id="frjB1W2SkOTdsVXl6TDt-1" value="Rider" style="ellipse;shape=cloud;whiteSpace=wrap;html=1;fillColor=#dae8fc;strokeColor=#6c8ebf;" parent="1" vertex="1">
          <mxGeometry x="180" y="80" width="120" height="80" as="geometry" />
        </mxCell>
        <mxCell id="frjB1W2SkOTdsVXl6TDt-2" value="Book Cab" style="rounded=1;whiteSpace=wrap;html=1;fillColor=#fff2cc;strokeColor=#d6b656;" parent="1" vertex="1">
          <mxGeometry x="186" y="280" width="120" height="60" as="geometry" />
        </mxCell>
        <mxCell id="frjB1W2SkOTdsVXl6TDt-3" value="" style="endArrow=classic;html=1;rounded=0;exitX=0.55;exitY=0.95;exitDx=0;exitDy=0;exitPerimeter=0;entryX=0.5;entryY=0;entryDx=0;entryDy=0;" parent="1" source="frjB1W2SkOTdsVXl6TDt-1" target="frjB1W2SkOTdsVXl6TDt-2" edge="1">
          <mxGeometry width="50" height="50" relative="1" as="geometry">
            <mxPoint x="400" y="300" as="sourcePoint" />
            <mxPoint x="450" y="250" as="targetPoint" />
          </mxGeometry>
        </mxCell>
        <mxCell id="frjB1W2SkOTdsVXl6TDt-4" value="Enter pickup and destination location" style="text;html=1;strokeColor=none;fillColor=none;align=center;verticalAlign=middle;whiteSpace=wrap;rounded=0;" parent="1" vertex="1">
          <mxGeometry x="250" y="190" width="90" height="50" as="geometry" />
        </mxCell>
        <mxCell id="frjB1W2SkOTdsVXl6TDt-5" value="Allocate Driver topic" style="sketch=0;points=[[0,0,0],[0.25,0,0],[0.5,0,0],[0.75,0,0],[1,0,0],[0,1,0],[0.25,1,0],[0.5,1,0],[0.75,1,0],[1,1,0],[0,0.25,0],[0,0.5,0],[0,0.75,0],[1,0.25,0],[1,0.5,0],[1,0.75,0]];outlineConnect=0;fontColor=#232F3E;gradientColor=#945DF2;gradientDirection=north;fillColor=#5A30B5;strokeColor=#ffffff;dashed=0;verticalLabelPosition=bottom;verticalAlign=top;align=center;html=1;fontSize=12;fontStyle=0;aspect=fixed;shape=mxgraph.aws4.resourceIcon;resIcon=mxgraph.aws4.managed_streaming_for_kafka;" parent="1" vertex="1">
          <mxGeometry x="207" y="445" width="78" height="78" as="geometry" />
        </mxCell>
        <mxCell id="frjB1W2SkOTdsVXl6TDt-6" value="" style="endArrow=classic;html=1;rounded=0;exitX=0.5;exitY=1;exitDx=0;exitDy=0;entryX=0.5;entryY=0;entryDx=0;entryDy=0;entryPerimeter=0;" parent="1" source="frjB1W2SkOTdsVXl6TDt-2" target="frjB1W2SkOTdsVXl6TDt-5" edge="1">
          <mxGeometry width="50" height="50" relative="1" as="geometry">
            <mxPoint x="400" y="390" as="sourcePoint" />
            <mxPoint x="450" y="340" as="targetPoint" />
          </mxGeometry>
        </mxCell>
        <mxCell id="frjB1W2SkOTdsVXl6TDt-7" value="Allocate Driver Consumer" style="rounded=1;whiteSpace=wrap;html=1;fillColor=#fff2cc;strokeColor=#d6b656;" parent="1" vertex="1">
          <mxGeometry x="186" y="610" width="120" height="60" as="geometry" />
        </mxCell>
        <mxCell id="frjB1W2SkOTdsVXl6TDt-8" value="Driver Location DB &lt;br&gt;(Elastic Search - Geo Support)" style="outlineConnect=0;dashed=0;verticalLabelPosition=bottom;verticalAlign=top;align=center;html=1;shape=mxgraph.aws3.elasticsearch_service;fillColor=#F58534;gradientColor=none;" parent="1" vertex="1">
          <mxGeometry x="457.75" y="740" width="67.5" height="81" as="geometry" />
        </mxCell>
        <mxCell id="frjB1W2SkOTdsVXl6TDt-10" value="" style="endArrow=classic;html=1;rounded=0;exitX=0.5;exitY=0;exitDx=0;exitDy=0;" parent="1" source="frjB1W2SkOTdsVXl6TDt-7" target="frjB1W2SkOTdsVXl6TDt-5" edge="1">
          <mxGeometry width="50" height="50" relative="1" as="geometry">
            <mxPoint x="400" y="680" as="sourcePoint" />
            <mxPoint x="450" y="630" as="targetPoint" />
          </mxGeometry>
        </mxCell>
        <mxCell id="frjB1W2SkOTdsVXl6TDt-11" value="Driver Match Algo - Find Available Drivers within given pickup location &amp;amp; ready for delivery location" style="rounded=1;whiteSpace=wrap;html=1;fillColor=#e1d5e7;strokeColor=#9673a6;" parent="1" vertex="1">
          <mxGeometry x="165" y="740" width="161" height="80" as="geometry" />
        </mxCell>
        <mxCell id="frjB1W2SkOTdsVXl6TDt-12" value="" style="endArrow=classic;html=1;rounded=0;exitX=0.5;exitY=1;exitDx=0;exitDy=0;entryX=0.5;entryY=0;entryDx=0;entryDy=0;" parent="1" source="frjB1W2SkOTdsVXl6TDt-7" target="frjB1W2SkOTdsVXl6TDt-11" edge="1">
          <mxGeometry width="50" height="50" relative="1" as="geometry">
            <mxPoint x="360" y="760" as="sourcePoint" />
            <mxPoint x="410" y="710" as="targetPoint" />
          </mxGeometry>
        </mxCell>
        <mxCell id="frjB1W2SkOTdsVXl6TDt-13" value="" style="endArrow=classic;html=1;rounded=0;exitX=1;exitY=0.5;exitDx=0;exitDy=0;edgeStyle=orthogonalEdgeStyle;entryX=0;entryY=0.5;entryDx=0;entryDy=0;entryPerimeter=0;" parent="1" source="frjB1W2SkOTdsVXl6TDt-11" target="frjB1W2SkOTdsVXl6TDt-8" edge="1">
          <mxGeometry width="50" height="50" relative="1" as="geometry">
            <mxPoint x="360" y="810" as="sourcePoint" />
            <mxPoint x="410" y="760" as="targetPoint" />
          </mxGeometry>
        </mxCell>
        <mxCell id="frjB1W2SkOTdsVXl6TDt-16" value="Driver" style="ellipse;shape=cloud;whiteSpace=wrap;html=1;fillColor=#dae8fc;strokeColor=#6c8ebf;" parent="1" vertex="1">
          <mxGeometry x="425" y="80" width="120" height="80" as="geometry" />
        </mxCell>
        <mxCell id="frjB1W2SkOTdsVXl6TDt-17" value="" style="endArrow=classic;html=1;rounded=0;exitX=0.55;exitY=0.95;exitDx=0;exitDy=0;exitPerimeter=0;entryX=0.5;entryY=0;entryDx=0;entryDy=0;" parent="1" source="frjB1W2SkOTdsVXl6TDt-16" target="frjB1W2SkOTdsVXl6TDt-18" edge="1">
          <mxGeometry width="50" height="50" relative="1" as="geometry">
            <mxPoint x="310" y="370" as="sourcePoint" />
            <mxPoint x="490" y="270" as="targetPoint" />
          </mxGeometry>
        </mxCell>
        <mxCell id="frjB1W2SkOTdsVXl6TDt-18" value="Push Location" style="rounded=1;whiteSpace=wrap;html=1;fillColor=#fff2cc;strokeColor=#d6b656;" parent="1" vertex="1">
          <mxGeometry x="431.5" y="280" width="120" height="60" as="geometry" />
        </mxCell>
        <mxCell id="frjB1W2SkOTdsVXl6TDt-19" value="Accept Trip" style="rounded=1;whiteSpace=wrap;html=1;fillColor=#fff2cc;strokeColor=#d6b656;" parent="1" vertex="1">
          <mxGeometry x="610" y="280" width="120" height="60" as="geometry" />
        </mxCell>
        <mxCell id="frjB1W2SkOTdsVXl6TDt-20" value="" style="endArrow=classic;html=1;rounded=0;exitX=0.875;exitY=0.5;exitDx=0;exitDy=0;exitPerimeter=0;entryX=0.5;entryY=0;entryDx=0;entryDy=0;edgeStyle=orthogonalEdgeStyle;" parent="1" source="frjB1W2SkOTdsVXl6TDt-16" target="frjB1W2SkOTdsVXl6TDt-19" edge="1">
          <mxGeometry width="50" height="50" relative="1" as="geometry">
            <mxPoint x="310" y="360" as="sourcePoint" />
            <mxPoint x="360" y="310" as="targetPoint" />
          </mxGeometry>
        </mxCell>
        <mxCell id="frjB1W2SkOTdsVXl6TDt-22" value="Driver Location Topic" style="sketch=0;points=[[0,0,0],[0.25,0,0],[0.5,0,0],[0.75,0,0],[1,0,0],[0,1,0],[0.25,1,0],[0.5,1,0],[0.75,1,0],[1,1,0],[0,0.25,0],[0,0.5,0],[0,0.75,0],[1,0.25,0],[1,0.5,0],[1,0.75,0]];outlineConnect=0;fontColor=#232F3E;gradientColor=#945DF2;gradientDirection=north;fillColor=#5A30B5;strokeColor=#ffffff;dashed=0;verticalLabelPosition=bottom;verticalAlign=top;align=center;html=1;fontSize=12;fontStyle=0;aspect=fixed;shape=mxgraph.aws4.resourceIcon;resIcon=mxgraph.aws4.managed_streaming_for_kafka;" parent="1" vertex="1">
          <mxGeometry x="453.5" y="443" width="78" height="78" as="geometry" />
        </mxCell>
        <mxCell id="frjB1W2SkOTdsVXl6TDt-23" value="" style="endArrow=classic;html=1;rounded=0;exitX=0.5;exitY=1;exitDx=0;exitDy=0;entryX=0.5;entryY=0;entryDx=0;entryDy=0;entryPerimeter=0;" parent="1" source="frjB1W2SkOTdsVXl6TDt-18" target="frjB1W2SkOTdsVXl6TDt-22" edge="1">
          <mxGeometry width="50" height="50" relative="1" as="geometry">
            <mxPoint x="310" y="550" as="sourcePoint" />
            <mxPoint x="360" y="500" as="targetPoint" />
          </mxGeometry>
        </mxCell>
        <mxCell id="frjB1W2SkOTdsVXl6TDt-25" value="Push Driver Location Consumer" style="rounded=1;whiteSpace=wrap;html=1;fillColor=#fff2cc;strokeColor=#d6b656;" parent="1" vertex="1">
          <mxGeometry x="432.5" y="610" width="120" height="60" as="geometry" />
        </mxCell>
        <mxCell id="frjB1W2SkOTdsVXl6TDt-26" value="" style="endArrow=classic;html=1;rounded=0;exitX=0.5;exitY=1;exitDx=0;exitDy=0;exitPerimeter=0;entryX=0.5;entryY=0;entryDx=0;entryDy=0;" parent="1" source="frjB1W2SkOTdsVXl6TDt-22" target="frjB1W2SkOTdsVXl6TDt-25" edge="1">
          <mxGeometry width="50" height="50" relative="1" as="geometry">
            <mxPoint x="310" y="600" as="sourcePoint" />
            <mxPoint x="360" y="550" as="targetPoint" />
          </mxGeometry>
        </mxCell>
        <mxCell id="frjB1W2SkOTdsVXl6TDt-27" value="" style="endArrow=classic;html=1;rounded=0;exitX=0.5;exitY=1;exitDx=0;exitDy=0;entryX=0.5;entryY=0;entryDx=0;entryDy=0;entryPerimeter=0;" parent="1" source="frjB1W2SkOTdsVXl6TDt-25" target="frjB1W2SkOTdsVXl6TDt-8" edge="1">
          <mxGeometry width="50" height="50" relative="1" as="geometry">
            <mxPoint x="310" y="600" as="sourcePoint" />
            <mxPoint x="360" y="550" as="targetPoint" />
          </mxGeometry>
        </mxCell>
        <mxCell id="frjB1W2SkOTdsVXl6TDt-28" value="Send Notification To Matched Drivers" style="text;html=1;strokeColor=none;fillColor=none;align=center;verticalAlign=middle;whiteSpace=wrap;rounded=0;" parent="1" vertex="1">
          <mxGeometry x="710" y="1040" width="100" height="30" as="geometry" />
        </mxCell>
        <mxCell id="frjB1W2SkOTdsVXl6TDt-29" value="New Trip Topic" style="sketch=0;points=[[0,0,0],[0.25,0,0],[0.5,0,0],[0.75,0,0],[1,0,0],[0,1,0],[0.25,1,0],[0.5,1,0],[0.75,1,0],[1,1,0],[0,0.25,0],[0,0.5,0],[0,0.75,0],[1,0.25,0],[1,0.5,0],[1,0.75,0]];outlineConnect=0;fontColor=#232F3E;gradientColor=#945DF2;gradientDirection=north;fillColor=#5A30B5;strokeColor=#ffffff;dashed=0;verticalLabelPosition=bottom;verticalAlign=top;align=center;html=1;fontSize=12;fontStyle=0;aspect=fixed;shape=mxgraph.aws4.resourceIcon;resIcon=mxgraph.aws4.managed_streaming_for_kafka;" parent="1" vertex="1">
          <mxGeometry x="631" y="443" width="78" height="78" as="geometry" />
        </mxCell>
        <mxCell id="frjB1W2SkOTdsVXl6TDt-32" value="" style="endArrow=classic;html=1;rounded=0;exitX=0.5;exitY=1;exitDx=0;exitDy=0;" parent="1" source="frjB1W2SkOTdsVXl6TDt-19" target="frjB1W2SkOTdsVXl6TDt-29" edge="1">
          <mxGeometry width="50" height="50" relative="1" as="geometry">
            <mxPoint x="320" y="490" as="sourcePoint" />
            <mxPoint x="370" y="440" as="targetPoint" />
          </mxGeometry>
        </mxCell>
        <mxCell id="frjB1W2SkOTdsVXl6TDt-33" value="Trips DB" style="sketch=0;outlineConnect=0;fontColor=#232F3E;gradientColor=none;fillColor=#2E27AD;strokeColor=none;dashed=0;verticalLabelPosition=bottom;verticalAlign=top;align=center;html=1;fontSize=12;fontStyle=0;aspect=fixed;pointerEvents=1;shape=mxgraph.aws4.rds_postgresql_instance;" parent="1" vertex="1">
          <mxGeometry x="740" y="850" width="78" height="78" as="geometry" />
        </mxCell>
        <mxCell id="frjB1W2SkOTdsVXl6TDt-34" value="" style="endArrow=classic;html=1;rounded=0;exitX=1;exitY=0.5;exitDx=0;exitDy=0;edgeStyle=orthogonalEdgeStyle;" parent="1" source="frjB1W2SkOTdsVXl6TDt-35" target="frjB1W2SkOTdsVXl6TDt-33" edge="1">
          <mxGeometry width="50" height="50" relative="1" as="geometry">
            <mxPoint x="680" y="770" as="sourcePoint" />
            <mxPoint x="370" y="740" as="targetPoint" />
          </mxGeometry>
        </mxCell>
        <mxCell id="frjB1W2SkOTdsVXl6TDt-35" value="New Trip Consumer" style="rounded=1;whiteSpace=wrap;html=1;fillColor=#fff2cc;strokeColor=#d6b656;" parent="1" vertex="1">
          <mxGeometry x="610" y="610" width="120" height="60" as="geometry" />
        </mxCell>
        <mxCell id="frjB1W2SkOTdsVXl6TDt-36" value="" style="endArrow=classic;html=1;rounded=0;exitX=0.5;exitY=1;exitDx=0;exitDy=0;exitPerimeter=0;" parent="1" source="frjB1W2SkOTdsVXl6TDt-29" target="frjB1W2SkOTdsVXl6TDt-35" edge="1">
          <mxGeometry width="50" height="50" relative="1" as="geometry">
            <mxPoint x="320" y="660" as="sourcePoint" />
            <mxPoint x="370" y="610" as="targetPoint" />
          </mxGeometry>
        </mxCell>
        <mxCell id="frjB1W2SkOTdsVXl6TDt-39" value="Get Drivers" style="text;html=1;strokeColor=none;fillColor=none;align=center;verticalAlign=middle;whiteSpace=wrap;rounded=0;" parent="1" vertex="1">
          <mxGeometry x="346" y="790" width="60" height="30" as="geometry" />
        </mxCell>
        <mxCell id="frjB1W2SkOTdsVXl6TDt-40" value="Drivers DB" style="sketch=0;outlineConnect=0;fontColor=#232F3E;gradientColor=none;fillColor=#2E27AD;strokeColor=none;dashed=0;verticalLabelPosition=bottom;verticalAlign=top;align=center;html=1;fontSize=12;fontStyle=0;aspect=fixed;pointerEvents=1;shape=mxgraph.aws4.rds_postgresql_instance;" parent="1" vertex="1">
          <mxGeometry x="631" y="850" width="78" height="78" as="geometry" />
        </mxCell>
        <mxCell id="frjB1W2SkOTdsVXl6TDt-44" value="" style="endArrow=classic;html=1;rounded=0;exitX=0.5;exitY=1;exitDx=0;exitDy=0;" parent="1" source="frjB1W2SkOTdsVXl6TDt-35" target="frjB1W2SkOTdsVXl6TDt-40" edge="1">
          <mxGeometry width="50" height="50" relative="1" as="geometry">
            <mxPoint x="320" y="870" as="sourcePoint" />
            <mxPoint x="370" y="820" as="targetPoint" />
          </mxGeometry>
        </mxCell>
        <mxCell id="frjB1W2SkOTdsVXl6TDt-45" value="Update Driver Availability" style="text;html=1;strokeColor=none;fillColor=none;align=center;verticalAlign=middle;whiteSpace=wrap;rounded=0;" parent="1" vertex="1">
          <mxGeometry x="610" y="750" width="60" height="30" as="geometry" />
        </mxCell>
        <mxCell id="frjB1W2SkOTdsVXl6TDt-46" value="" style="endArrow=classic;html=1;rounded=0;exitX=0.5;exitY=1;exitDx=0;exitDy=0;edgeStyle=elbowEdgeStyle;" parent="1" source="frjB1W2SkOTdsVXl6TDt-11" target="frjB1W2SkOTdsVXl6TDt-40" edge="1">
          <mxGeometry width="50" height="50" relative="1" as="geometry">
            <mxPoint x="320" y="830" as="sourcePoint" />
            <mxPoint x="370" y="780" as="targetPoint" />
            <Array as="points">
              <mxPoint x="246" y="910" />
            </Array>
          </mxGeometry>
        </mxCell>
        <mxCell id="frjB1W2SkOTdsVXl6TDt-47" value="Check Available Driver" style="text;html=1;strokeColor=none;fillColor=none;align=center;verticalAlign=middle;whiteSpace=wrap;rounded=0;" parent="1" vertex="1">
          <mxGeometry x="290" y="920" width="94" height="30" as="geometry" />
        </mxCell>
        <mxCell id="frjB1W2SkOTdsVXl6TDt-54" value="" style="endArrow=classic;html=1;rounded=0;exitX=1;exitY=0.25;exitDx=0;exitDy=0;edgeStyle=orthogonalEdgeStyle;" parent="1" source="frjB1W2SkOTdsVXl6TDt-35" target="frjB1W2SkOTdsVXl6TDt-58" edge="1">
          <mxGeometry width="50" height="50" relative="1" as="geometry">
            <mxPoint x="880" y="670" as="sourcePoint" />
            <mxPoint x="930" y="620" as="targetPoint" />
          </mxGeometry>
        </mxCell>
        <mxCell id="frjB1W2SkOTdsVXl6TDt-55" value="Send Notification To Rider about Trip" style="text;html=1;strokeColor=none;fillColor=none;align=center;verticalAlign=middle;whiteSpace=wrap;rounded=0;" parent="1" vertex="1">
          <mxGeometry x="940" y="730" width="60" height="30" as="geometry" />
        </mxCell>
        <mxCell id="frjB1W2SkOTdsVXl6TDt-56" value="Create New Trip" style="text;html=1;strokeColor=none;fillColor=none;align=center;verticalAlign=middle;whiteSpace=wrap;rounded=0;" parent="1" vertex="1">
          <mxGeometry x="780" y="740" width="60" height="30" as="geometry" />
        </mxCell>
        <mxCell id="frjB1W2SkOTdsVXl6TDt-58" value="&lt;div&gt;Notification Service &lt;br&gt;&lt;/div&gt;&lt;div&gt;( SNS or Firebase )&lt;/div&gt;" style="rounded=1;whiteSpace=wrap;html=1;fillColor=#f5f5f5;strokeColor=#666666;fontColor=#333333;" parent="1" vertex="1">
          <mxGeometry x="860" y="990" width="130" height="70" as="geometry" />
        </mxCell>
        <mxCell id="frjB1W2SkOTdsVXl6TDt-59" value="" style="endArrow=classic;html=1;rounded=0;exitX=0.25;exitY=1;exitDx=0;exitDy=0;entryX=0;entryY=0.5;entryDx=0;entryDy=0;edgeStyle=orthogonalEdgeStyle;" parent="1" source="frjB1W2SkOTdsVXl6TDt-11" target="frjB1W2SkOTdsVXl6TDt-58" edge="1">
          <mxGeometry width="50" height="50" relative="1" as="geometry">
            <mxPoint x="550" y="870" as="sourcePoint" />
            <mxPoint x="600" y="820" as="targetPoint" />
          </mxGeometry>
        </mxCell>
      </root>
    </mxGraphModel>
  </diagram>
</mxfile>
